<svg xmlns="http://www.w3.org/2000/svg" width="21" height="21" fill="none" viewBox="0 0 21 21">
    <path fill="#fff" d="M10.5 0C4.725 0 0 4.725 0 10.5c0 4.463 2.756 8.269 6.694 9.712-.131-.787-.131-2.1 0-3.018.131-.788 1.181-5.25 1.181-5.25s-.263-.525-.263-1.444c0-1.444.92-2.625 1.97-2.625.918 0 1.312.656 1.312 1.444 0 .918-.525 2.231-.919 3.543-.262 1.05.525 1.838 1.575 1.838 1.837 0 3.281-1.969 3.281-4.856 0-2.494-1.837-4.331-4.331-4.331-3.019 0-4.725 2.23-4.725 4.593 0 .919.394 1.838.787 2.363v.525c-.13.393-.262 1.05-.262 1.181s-.131.262-.394.131c-1.312-.656-2.1-2.493-2.1-4.068 0-3.282 2.363-6.3 6.956-6.3 3.675 0 6.432 2.624 6.432 6.037 0 3.675-2.231 6.563-5.513 6.563-1.05 0-2.1-.526-2.362-1.182 0 0-.525 1.969-.657 2.494-.262.919-.918 2.1-1.312 2.756 1.05.263 2.1.394 3.15.394C16.275 21 21 16.275 21 10.5S16.275 0 10.5 0z" opacity=".5"/>
</svg>
