<svg xmlns="http://www.w3.org/2000/svg" width="23" height="22" fill="none" viewBox="0 0 23 22">
    <g fill="#000" clip-path="url(#a)">
        <path d="M11.115 9.533c1.43 0 2.593-1.151 2.593-2.566 0-1.415-1.163-2.567-2.593-2.567S8.52 5.552 8.52 6.967c0 1.415 1.164 2.566 2.594 2.566zm0-4.4c1.021 0 1.852.823 1.852 1.834 0 1.01-.83 1.833-1.852 1.833a1.845 1.845 0 0 1-1.853-1.833c0-1.011.831-1.834 1.853-1.834z"/>
        <path d="M11.049 20.078l5.684-8.125c2.131-2.812 1.823-7.436-.66-9.893A7.095 7.095 0 0 0 11.049 0a7.096 7.096 0 0 0-5.024 2.06c-2.483 2.457-2.791 7.08-.668 9.882l5.692 8.136zm-4.5-17.5a6.357 6.357 0 0 1 4.5-1.845c1.7 0 3.298.656 4.5 1.845 2.241 2.218 2.517 6.394.583 8.946l-5.083 7.265-5.09-7.276c-1.927-2.541-1.65-6.717.59-8.935z"/>
        <path d="M15.603 15.77a.368.368 0 0 0-.41.32.367.367 0 0 0 .324.407c3.896.454 5.97 1.678 5.97 2.386 0 .995-3.946 2.384-10.373 2.384S.741 19.878.741 18.883c0-.708 2.075-1.932 5.971-2.386a.368.368 0 0 0 .324-.407.368.368 0 0 0-.41-.32C2.723 16.223 0 17.503 0 18.882 0 20.433 3.818 22 11.114 22c7.297 0 11.115-1.568 11.115-3.117 0-1.379-2.725-2.66-6.626-3.114z"/>
    </g>
    <defs>
        <clipPath id="a">
            <path fill="#fff" d="M0 0h22.229v22H0z"/>
        </clipPath>
    </defs>
</svg>
